# xmcd CD database file generated by Grip 3.0.7
# 
# Track frame offsets:
#       150
#       18325
#       42197
#       63037
#       83497
#       101929
#       117827
#       139202
#       159104
#       184292
#       205641
#       225530
# 
# Disc length: 3382 seconds
# 
# Revision: 2
# Processed by: cddbd v1.4PL0 Copyright (c) Steve Scherf et al.
# Submitted via: Grip 3.0.7
# 
DISCID=8f0d340c
DTITLE=Eagle Eye Cherry - Desireless
DYEAR=1900
DGENRE=Blues
TTITLE0=Save tonight
TTITLE1=Indecision
TTITLE2=Comatose (in the arms of slumber)
TTITLE3=Worried eyes
TTITLE4=Rainbow wings
TTITLE5=Falling in love again
TTITLE6=Conversation
TTITLE7=When mermaids cry
TTITLE8=Shooting up in vain
TTITLE9=Permanent tears
TTITLE10=Death defied by will
TTITLE11=Desireless
EXTD=
EXTT0=
EXTT1=
EXTT2=
EXTT3=
EXTT4=
EXTT5=
EXTT6=
EXTT7=
EXTT8=
EXTT9=
EXTT10=
EXTT11=
PLAYORDER=
